# xmcd
#
# Track frame offsets:
#	187
#	11745
#	23415
#	37145
#	49652
#	61582
#	75332
#	89132
#	103917
#	116372
#	132692
#	148497
#	159787
#	172095
#	182765
#	195137
#	206372
#	215877
#	228887
#	242037
#
# Disc length: 3412 seconds
#
# Revision: 1
# Processed by: cddbd v1.5PL3 Copyright (c) Steve Scherf et al.
# Submitted via: CDex 1.50Beta5
#
DISCID=130d5214
DTITLE=フィンガーファイブ - 恋のダイヤル6700〜学園天国
DYEAR=1989
DGENRE=Pop
TTITLE0=フィンガー5のテーマ
TTITLE1=恋の大予言
TTITLE2=上級生
TTITLE3=恋のアメリカン・フットボール
TTITLE4=学園天国
TTITLE5=恋のダイヤル6700
TTITLE6=個人授業
TTITLE7=華麗なうわさ
TTITLE8=バンプ天国
TTITLE9=つばさがあれば
TTITLE10=恋のハートビート
TTITLE11=ステッピンストーン
TTITLE12=恋の研究
TTITLE13=おませなデート
TTITLE14=ワン・バッド・アップル
TTITLE15=白いパーティードレス
TTITLE16=気になる女の子
TTITLE17=朝がねむいよ
TTITLE18=バラの少女
TTITLE19=オキナワへ帰ろう
EXTD=
EXTT0=
EXTT1=
EXTT2=
EXTT3=
EXTT4=
EXTT5=
EXTT6=
EXTT7=
EXTT8=
EXTT9=
EXTT10=
EXTT11=
EXTT12=
EXTT13=
EXTT14=
EXTT15=
EXTT16=
EXTT17=
EXTT18=
EXTT19=
PLAYORDER=
